<mxfile host="app.diagrams.net" modified="2023-04-27T22:14:11.947Z" agent="Mozilla/5.0 (Windows NT 10.0; Win64; x64) AppleWebKit/537.36 (KHTML, like Gecko) Chrome/112.0.0.0 Safari/537.36" etag="yefJwYZ2sfDXHljdJmBR" version="21.2.3" type="device">
  <diagram name="Page-1" id="2YBvvXClWsGukQMizWep">
    <mxGraphModel dx="1050" dy="573" grid="1" gridSize="10" guides="1" tooltips="1" connect="1" arrows="1" fold="1" page="1" pageScale="1" pageWidth="850" pageHeight="1100" math="0" shadow="0">
      <root>
        <mxCell id="0" />
        <mxCell id="1" parent="0" />
        <mxCell id="x0mA73BqfJQpElvtULqb-1" value="Admin&lt;br&gt;" style="shape=umlActor;verticalLabelPosition=bottom;verticalAlign=top;html=1;outlineConnect=0;" parent="1" vertex="1">
          <mxGeometry x="100" y="40" width="50" height="80" as="geometry" />
        </mxCell>
        <mxCell id="x0mA73BqfJQpElvtULqb-3" value="Public Destination&lt;br&gt;Database&lt;br&gt;" style="ellipse;whiteSpace=wrap;html=1;" parent="1" vertex="1">
          <mxGeometry x="590" y="40" width="120" height="80" as="geometry" />
        </mxCell>
        <mxCell id="x0mA73BqfJQpElvtULqb-5" value="" style="endArrow=none;dashed=1;html=1;dashPattern=1 3;strokeWidth=2;rounded=0;exitX=0.53;exitY=-0.033;exitDx=0;exitDy=0;exitPerimeter=0;" parent="1" source="x0mA73BqfJQpElvtULqb-7" edge="1">
          <mxGeometry width="50" height="50" relative="1" as="geometry">
            <mxPoint x="125" y="440" as="sourcePoint" />
            <mxPoint x="125" y="150" as="targetPoint" />
          </mxGeometry>
        </mxCell>
        <mxCell id="x0mA73BqfJQpElvtULqb-6" value="" style="endArrow=none;dashed=1;html=1;dashPattern=1 3;strokeWidth=2;rounded=0;entryX=0.5;entryY=1;entryDx=0;entryDy=0;exitX=0.5;exitY=0;exitDx=0;exitDy=0;" parent="1" source="x0mA73BqfJQpElvtULqb-58" target="x0mA73BqfJQpElvtULqb-3" edge="1">
          <mxGeometry width="50" height="50" relative="1" as="geometry">
            <mxPoint x="720" y="430" as="sourcePoint" />
            <mxPoint x="770" y="220" as="targetPoint" />
          </mxGeometry>
        </mxCell>
        <mxCell id="x0mA73BqfJQpElvtULqb-7" value="Admin" style="text;html=1;align=center;verticalAlign=middle;resizable=0;points=[];autosize=1;strokeColor=none;fillColor=none;" parent="1" vertex="1">
          <mxGeometry x="95" y="490" width="60" height="30" as="geometry" />
        </mxCell>
        <mxCell id="x0mA73BqfJQpElvtULqb-8" value="" style="shape=umlActor;verticalLabelPosition=bottom;verticalAlign=top;html=1;outlineConnect=0;" parent="1" vertex="1">
          <mxGeometry x="100" y="530" width="50" height="80" as="geometry" />
        </mxCell>
        <mxCell id="x0mA73BqfJQpElvtULqb-10" value="Public Destination&lt;br&gt;Database&lt;br&gt;" style="ellipse;whiteSpace=wrap;html=1;" parent="1" vertex="1">
          <mxGeometry x="590" y="530" width="120" height="80" as="geometry" />
        </mxCell>
        <mxCell id="x0mA73BqfJQpElvtULqb-30" value="Choose Destination" style="endArrow=classic;html=1;rounded=0;entryX=0;entryY=0;entryDx=0;entryDy=0;" parent="1" target="x0mA73BqfJQpElvtULqb-50" edge="1">
          <mxGeometry width="50" height="50" relative="1" as="geometry">
            <mxPoint x="130" y="180" as="sourcePoint" />
            <mxPoint x="270" y="180" as="targetPoint" />
          </mxGeometry>
        </mxCell>
        <mxCell id="x0mA73BqfJQpElvtULqb-32" value="Delete Destination Form" style="ellipse;whiteSpace=wrap;html=1;" parent="1" vertex="1">
          <mxGeometry x="340" y="40" width="120" height="80" as="geometry" />
        </mxCell>
        <mxCell id="x0mA73BqfJQpElvtULqb-33" value="" style="endArrow=none;dashed=1;html=1;dashPattern=1 3;strokeWidth=2;rounded=0;entryX=0.5;entryY=1;entryDx=0;entryDy=0;exitX=0.5;exitY=0;exitDx=0;exitDy=0;" parent="1" target="x0mA73BqfJQpElvtULqb-32" edge="1" source="x0mA73BqfJQpElvtULqb-50">
          <mxGeometry width="50" height="50" relative="1" as="geometry">
            <mxPoint x="570" y="530.0000000000002" as="sourcePoint" />
            <mxPoint x="460" y="260" as="targetPoint" />
          </mxGeometry>
        </mxCell>
        <mxCell id="x0mA73BqfJQpElvtULqb-38" value="Get Destination" style="endArrow=classic;html=1;rounded=0;entryX=0;entryY=0;entryDx=0;entryDy=0;" parent="1" target="x0mA73BqfJQpElvtULqb-58" edge="1">
          <mxGeometry width="50" height="50" relative="1" as="geometry">
            <mxPoint x="400" y="240" as="sourcePoint" />
            <mxPoint x="720" y="240" as="targetPoint" />
          </mxGeometry>
        </mxCell>
        <mxCell id="x0mA73BqfJQpElvtULqb-40" value="Delete Destination Service" style="ellipse;whiteSpace=wrap;html=1;" parent="1" vertex="1">
          <mxGeometry x="340" y="530" width="120" height="80" as="geometry" />
        </mxCell>
        <mxCell id="x0mA73BqfJQpElvtULqb-42" value="Get confirmation Message" style="endArrow=classic;html=1;rounded=0;dashed=1;" parent="1" edge="1">
          <mxGeometry width="50" height="50" relative="1" as="geometry">
            <mxPoint x="645" y="280" as="sourcePoint" />
            <mxPoint x="120" y="280" as="targetPoint" />
            <mxPoint as="offset" />
          </mxGeometry>
        </mxCell>
        <mxCell id="x0mA73BqfJQpElvtULqb-43" value="Confirm Delete" style="endArrow=classic;html=1;rounded=0;entryX=0;entryY=0;entryDx=0;entryDy=0;" parent="1" target="tu2oegFtNjlnArLriqSs-12" edge="1">
          <mxGeometry x="-0.0204" width="50" height="50" relative="1" as="geometry">
            <mxPoint x="130" y="310" as="sourcePoint" />
            <mxPoint x="400" y="310" as="targetPoint" />
            <mxPoint as="offset" />
          </mxGeometry>
        </mxCell>
        <mxCell id="x0mA73BqfJQpElvtULqb-45" value="Succes Page" style="ellipse;whiteSpace=wrap;html=1;" parent="1" vertex="1">
          <mxGeometry x="810" y="40" width="120" height="80" as="geometry" />
        </mxCell>
        <mxCell id="x0mA73BqfJQpElvtULqb-46" value="" style="endArrow=none;dashed=1;html=1;dashPattern=1 3;strokeWidth=2;rounded=0;entryX=0.5;entryY=1;entryDx=0;entryDy=0;exitX=0.5;exitY=0;exitDx=0;exitDy=0;" parent="1" source="x0mA73BqfJQpElvtULqb-63" target="x0mA73BqfJQpElvtULqb-45" edge="1">
          <mxGeometry width="50" height="50" relative="1" as="geometry">
            <mxPoint x="870" y="430" as="sourcePoint" />
            <mxPoint x="920" y="220" as="targetPoint" />
          </mxGeometry>
        </mxCell>
        <mxCell id="x0mA73BqfJQpElvtULqb-47" value="Succes Page" style="ellipse;whiteSpace=wrap;html=1;" parent="1" vertex="1">
          <mxGeometry x="810" y="530" width="120" height="80" as="geometry" />
        </mxCell>
        <mxCell id="x0mA73BqfJQpElvtULqb-48" value="Notify Removal" style="endArrow=classic;html=1;rounded=0;dashed=1;" parent="1" edge="1">
          <mxGeometry x="0.0667" width="50" height="50" relative="1" as="geometry">
            <mxPoint x="650" y="410" as="sourcePoint" />
            <mxPoint x="400" y="410" as="targetPoint" />
            <mxPoint as="offset" />
          </mxGeometry>
        </mxCell>
        <mxCell id="x0mA73BqfJQpElvtULqb-49" value="Redirect" style="endArrow=classic;html=1;rounded=0;entryX=0;entryY=0;entryDx=0;entryDy=0;" parent="1" target="x0mA73BqfJQpElvtULqb-63" edge="1">
          <mxGeometry width="50" height="50" relative="1" as="geometry">
            <mxPoint x="400" y="440" as="sourcePoint" />
            <mxPoint x="870" y="440" as="targetPoint" />
          </mxGeometry>
        </mxCell>
        <mxCell id="x0mA73BqfJQpElvtULqb-59" value="" style="endArrow=none;dashed=1;html=1;dashPattern=1 3;strokeWidth=2;rounded=0;entryX=0.5;entryY=1;entryDx=0;entryDy=0;" parent="1" target="x0mA73BqfJQpElvtULqb-58" edge="1">
          <mxGeometry width="50" height="50" relative="1" as="geometry">
            <mxPoint x="650" y="350" as="sourcePoint" />
            <mxPoint x="720" y="120" as="targetPoint" />
          </mxGeometry>
        </mxCell>
        <mxCell id="x0mA73BqfJQpElvtULqb-58" value="" style="rounded=0;whiteSpace=wrap;html=1;" parent="1" vertex="1">
          <mxGeometry x="645" y="240" width="10" height="20" as="geometry" />
        </mxCell>
        <mxCell id="x0mA73BqfJQpElvtULqb-62" value="" style="endArrow=none;dashed=1;html=1;dashPattern=1 3;strokeWidth=2;rounded=0;entryX=0.5;entryY=1;entryDx=0;entryDy=0;exitX=0.5;exitY=0;exitDx=0;exitDy=0;" parent="1" source="x0mA73BqfJQpElvtULqb-10" target="x0mA73BqfJQpElvtULqb-61" edge="1">
          <mxGeometry width="50" height="50" relative="1" as="geometry">
            <mxPoint x="720" y="530" as="sourcePoint" />
            <mxPoint x="720" y="260" as="targetPoint" />
          </mxGeometry>
        </mxCell>
        <mxCell id="x0mA73BqfJQpElvtULqb-61" value="" style="rounded=0;whiteSpace=wrap;html=1;" parent="1" vertex="1">
          <mxGeometry x="645" y="360" width="10" height="30" as="geometry" />
        </mxCell>
        <mxCell id="x0mA73BqfJQpElvtULqb-64" value="" style="endArrow=none;dashed=1;html=1;dashPattern=1 3;strokeWidth=2;rounded=0;entryX=0.5;entryY=1;entryDx=0;entryDy=0;exitX=0.5;exitY=0;exitDx=0;exitDy=0;" parent="1" source="x0mA73BqfJQpElvtULqb-47" target="x0mA73BqfJQpElvtULqb-63" edge="1">
          <mxGeometry width="50" height="50" relative="1" as="geometry">
            <mxPoint x="870" y="530" as="sourcePoint" />
            <mxPoint x="870" y="120" as="targetPoint" />
          </mxGeometry>
        </mxCell>
        <mxCell id="x0mA73BqfJQpElvtULqb-63" value="" style="rounded=0;whiteSpace=wrap;html=1;" parent="1" vertex="1">
          <mxGeometry x="865" y="440" width="10" height="50" as="geometry" />
        </mxCell>
        <mxCell id="tu2oegFtNjlnArLriqSs-3" value="" style="endArrow=none;dashed=1;html=1;dashPattern=1 3;strokeWidth=2;rounded=0;entryX=0.5;entryY=1;entryDx=0;entryDy=0;exitX=0.5;exitY=0;exitDx=0;exitDy=0;" edge="1" parent="1" source="x0mA73BqfJQpElvtULqb-40">
          <mxGeometry width="50" height="50" relative="1" as="geometry">
            <mxPoint x="570" y="530.0000000000002" as="sourcePoint" />
            <mxPoint x="400" y="280" as="targetPoint" />
            <Array as="points">
              <mxPoint x="400" y="500" />
            </Array>
          </mxGeometry>
        </mxCell>
        <mxCell id="tu2oegFtNjlnArLriqSs-5" value="" style="endArrow=none;dashed=1;html=1;dashPattern=1 3;strokeWidth=2;rounded=0;entryX=0.5;entryY=1;entryDx=0;entryDy=0;" edge="1" parent="1" target="x0mA73BqfJQpElvtULqb-50">
          <mxGeometry width="50" height="50" relative="1" as="geometry">
            <mxPoint x="400" y="280" as="sourcePoint" />
            <mxPoint x="400" y="120" as="targetPoint" />
          </mxGeometry>
        </mxCell>
        <mxCell id="x0mA73BqfJQpElvtULqb-50" value="" style="rounded=0;whiteSpace=wrap;html=1;" parent="1" vertex="1">
          <mxGeometry x="395" y="180" width="10" height="30" as="geometry" />
        </mxCell>
        <mxCell id="tu2oegFtNjlnArLriqSs-7" value="" style="endArrow=none;dashed=1;html=1;dashPattern=1 3;strokeWidth=2;rounded=0;entryX=0.5;entryY=1;entryDx=0;entryDy=0;exitX=0.5;exitY=0;exitDx=0;exitDy=0;" edge="1" parent="1" source="x0mA73BqfJQpElvtULqb-61">
          <mxGeometry width="50" height="50" relative="1" as="geometry">
            <mxPoint x="650" y="350" as="sourcePoint" />
            <mxPoint x="650" y="340" as="targetPoint" />
          </mxGeometry>
        </mxCell>
        <mxCell id="tu2oegFtNjlnArLriqSs-12" value="" style="rounded=0;whiteSpace=wrap;html=1;" vertex="1" parent="1">
          <mxGeometry x="395" y="310" width="10" height="30" as="geometry" />
        </mxCell>
        <mxCell id="tu2oegFtNjlnArLriqSs-15" value="Remove Destination" style="endArrow=classic;html=1;rounded=0;entryX=0;entryY=0;entryDx=0;entryDy=0;" edge="1" parent="1" target="x0mA73BqfJQpElvtULqb-61">
          <mxGeometry width="50" height="50" relative="1" as="geometry">
            <mxPoint x="400" y="360" as="sourcePoint" />
            <mxPoint x="640" y="360" as="targetPoint" />
          </mxGeometry>
        </mxCell>
      </root>
    </mxGraphModel>
  </diagram>
</mxfile>
